<svg width="24" height="24" viewBox="0 0 24 24" fill="none" xmlns="http://www.w3.org/2000/svg">
<path d="M11.4042 5.94733L12.0256 6.5301L12.6997 6.00923C14.4445 4.66112 16.3038 4.4959 17.6666 5.08595C19.0048 5.66538 20.0549 7.0545 20.0547 9.2553V9.25541C20.0547 12.1322 18.1019 14.6326 15.9204 16.5041C14.8512 17.4213 13.7772 18.1438 12.9683 18.6375C12.6058 18.8587 12.2987 19.0327 12.0721 19.1564C11.8475 19.0417 11.5447 18.8804 11.1878 18.674C10.3821 18.2083 9.31237 17.5196 8.24763 16.6268C6.08507 14.8134 4.12189 12.3126 4.12189 9.25541C4.12189 5.05805 8.64698 3.36144 11.4042 5.94733Z" stroke="black" stroke-opacity="0.56" stroke-width="2"/>
</svg>
