<svg width="24" height="24" viewBox="0 0 24 24" fill="none" xmlns="http://www.w3.org/2000/svg">
<path fill-rule="evenodd" clip-rule="evenodd" d="M14.7047 3.80005H13.7047V5.80005H14.7047H16.1002L11.8073 10.093L11.1002 10.8001L12.5144 12.2143L13.2215 11.5072L17.5142 7.21451V8.60957V9.60957H19.5142V8.60957V4.80005V3.80005H18.5142H14.7047ZM3.79999 12.0858C3.79999 7.98309 7.12587 4.6572 11.2286 4.6572V6.6572C8.23044 6.6572 5.79999 9.08766 5.79999 12.0858C5.79999 15.0839 8.23044 17.5143 11.2286 17.5143C14.2267 17.5143 16.6571 15.0839 16.6571 12.0858H18.6571C18.6571 16.1885 15.3312 19.5143 11.2286 19.5143C7.12587 19.5143 3.79999 16.1885 3.79999 12.0858Z" fill="black" fill-opacity="0.56"/>
</svg>
