<svg width="18" height="18" viewBox="0 0 18 18" fill="none" xmlns="http://www.w3.org/2000/svg">
<g clip-path="url(#clip0_4501_22)">
<path d="M0 9C0 4.02944 4.02944 0 9 0V0C13.9706 0 18 4.02944 18 9V9C18 13.9706 13.9706 18 9 18V18C4.02944 18 0 13.9706 0 9V9Z" fill="#7E869E" fill-opacity="0.25"/>
<circle cx="9" cy="7" r="4" fill="#00B7E9"/>
<path fill-rule="evenodd" clip-rule="evenodd" d="M15.2209 15.2462C15.2791 15.3426 15.2613 15.466 15.1795 15.5432C13.5674 17.0662 11.3928 18 9 18C6.60728 18 4.43264 17.0663 2.82057 15.5433C2.73877 15.466 2.72101 15.3427 2.77918 15.2463C3.94337 13.318 6.29215 12 9.00006 12C11.7079 12 14.0567 13.3179 15.2209 15.2462Z" fill="#00B7E9"/>
</g>
<defs>
<clipPath id="clip0_4501_22">
<rect width="18" height="18" fill="white"/>
</clipPath>
</defs>
</svg>
